HIERARCHY
ROOT Hips
{
	OFFSET -14.64140 90.27770 -84.91600
	CHANNELS 6 Xposition Yposition Zposition Zrotation Xrotation Yrotation
	JOINT Spine
	{
		OFFSET 0.00000 13.20850 -1.60436
		CHANNELS 3 Zrotation Xrotation Yrotation
		JOINT Spine1
		{
			OFFSET 0.00000 8.61716 0.00000
			CHANNELS 3 Zrotation Xrotation Yrotation
			JOINT Spine2
			{
				OFFSET 0.00000 8.61717 0.00000
				CHANNELS 3 Zrotation Xrotation Yrotation
				JOINT Spine3
				{
					OFFSET 0.00000 8.61717 0.00000
					CHANNELS 3 Zrotation Xrotation Yrotation
					JOINT Neck
					{
						OFFSET 0.00000 11.07920 1.10792
						CHANNELS 3 Zrotation Xrotation Yrotation
						JOINT Neck1
						{
							OFFSET 0.00000 7.08032 0.00000
							CHANNELS 3 Zrotation Xrotation Yrotation
							JOINT Head
							{
								OFFSET 0.00000 7.08031 0.00000
								CHANNELS 3 Zrotation Xrotation Yrotation
								End site
								{
									OFFSET 0.00000 0.00000 0.00000
								}
							}
						}
					}
					JOINT RightShoulder
					{
						OFFSET -0.01000 7.91373 5.19711
						CHANNELS 3 Zrotation Xrotation Yrotation
						JOINT RightArm
						{
							OFFSET -18.41580 0.00000 0.00000
							CHANNELS 3 Zrotation Xrotation Yrotation
							JOINT RightForeArm
							{
								OFFSET -29.11090 0.00000 0.00000
								CHANNELS 3 Zrotation Xrotation Yrotation
								JOINT RightHand
								{
									OFFSET -24.65040 0.00000 0.00000
									CHANNELS 3 Zrotation Xrotation Yrotation
									JOINT RightHandThumb1
									{
										OFFSET -5.35114 -0.85590 3.97906
										CHANNELS 3 Zrotation Xrotation Yrotation
										JOINT RightHandThumb2
										{
											OFFSET -4.52789 0.00000 0.00000
											CHANNELS 3 Zrotation Xrotation Yrotation
											JOINT RightHandThumb3
											{
												OFFSET -2.46976 0.00000 0.00000
												CHANNELS 3 Zrotation Xrotation Yrotation
												End site
												{
													OFFSET 0.00000 0.00000 0.00000
												}
											}
										}
									}
									JOINT RightHandIndex1
									{
										OFFSET -14.26970 0.00000 2.88139
										CHANNELS 3 Zrotation Xrotation Yrotation
										JOINT RightHandIndex2
										{
											OFFSET -5.48836 0.00000 0.00000
											CHANNELS 3 Zrotation Xrotation Yrotation
											JOINT RightHandIndex3
											{
												OFFSET -3.01859 0.00000 0.00000
												CHANNELS 3 Zrotation Xrotation Yrotation
												End site
												{
													OFFSET 0.00000 0.00000 0.00000
												}
											}
										}
									}
									JOINT RightHandMiddle1
									{
										OFFSET -14.26970 0.00000 -0.09147
										CHANNELS 3 Zrotation Xrotation Yrotation
										JOINT RightHandMiddle2
										{
											OFFSET -6.17441 0.00000 0.00000
											CHANNELS 3 Zrotation Xrotation Yrotation
											JOINT RightHandMiddle3
											{
												OFFSET -3.56743 0.00000 0.00000
												CHANNELS 3 Zrotation Xrotation Yrotation
												End site
												{
													OFFSET 0.00000 0.00000 0.00000
												}
											}
										}
									}
									JOINT RightHandRing1
									{
										OFFSET -12.69180 0.00000 -3.06433
										CHANNELS 3 Zrotation Xrotation Yrotation
										JOINT RightHandRing2
										{
											OFFSET -5.62556 0.00000 0.00000
											CHANNELS 3 Zrotation Xrotation Yrotation
											JOINT RightHandRing3
											{
												OFFSET -3.56744 0.00000 0.00000
												CHANNELS 3 Zrotation Xrotation Yrotation
												End site
												{
													OFFSET 0.00000 0.00000 0.00000
												}
											}
										}
									}
									JOINT RightHandPinky1
									{
										OFFSET -11.11390 0.00000 -6.03719
										CHANNELS 3 Zrotation Xrotation Yrotation
										JOINT RightHandPinky2
										{
											OFFSET -4.52789 0.00000 0.00000
											CHANNELS 3 Zrotation Xrotation Yrotation
											JOINT RightHandPinky3
											{
												OFFSET -2.46976 0.00000 0.00000
												CHANNELS 3 Zrotation Xrotation Yrotation
												End site
												{
													OFFSET 0.00000 0.00000 0.00000
												}
											}
										}
									}
								}
							}
						}
					}
					JOINT LeftShoulder
					{
						OFFSET 0.01000 7.91373 5.19711
						CHANNELS 3 Zrotation Xrotation Yrotation
						JOINT LeftArm
						{
							OFFSET 18.41580 0.00000 0.00000
							CHANNELS 3 Zrotation Xrotation Yrotation
							JOINT LeftForeArm
							{
								OFFSET 29.11090 0.00000 0.00000
								CHANNELS 3 Zrotation Xrotation Yrotation
								JOINT LeftHand
								{
									OFFSET 24.65040 0.00000 0.00000
									CHANNELS 3 Zrotation Xrotation Yrotation
									JOINT LeftHandThumb1
									{
										OFFSET 5.35114 -0.85590 3.97906
										CHANNELS 3 Zrotation Xrotation Yrotation
										JOINT LeftHandThumb2
										{
											OFFSET 4.52789 0.00000 0.00000
											CHANNELS 3 Zrotation Xrotation Yrotation
											JOINT LeftHandThumb3
											{
												OFFSET 2.46977 0.00000 0.00000
												CHANNELS 3 Zrotation Xrotation Yrotation
												End site
												{
													OFFSET 0.00000 0.00000 0.00000
												}
											}
										}
									}
									JOINT LeftHandIndex1
									{
										OFFSET 14.26970 0.00000 2.88139
										CHANNELS 3 Zrotation Xrotation Yrotation
										JOINT LeftHandIndex2
										{
											OFFSET 5.48836 0.00000 0.00000
											CHANNELS 3 Zrotation Xrotation Yrotation
											JOINT LeftHandIndex3
											{
												OFFSET 3.01859 0.00000 0.00000
												CHANNELS 3 Zrotation Xrotation Yrotation
												End site
												{
													OFFSET 0.00000 0.00000 0.00000
												}
											}
										}
									}
									JOINT LeftHandMiddle1
									{
										OFFSET 14.26970 0.00000 -0.09147
										CHANNELS 3 Zrotation Xrotation Yrotation
										JOINT LeftHandMiddle2
										{
											OFFSET 6.17440 0.00000 0.00000
											CHANNELS 3 Zrotation Xrotation Yrotation
											JOINT LeftHandMiddle3
											{
												OFFSET 3.56744 0.00000 0.00000
												CHANNELS 3 Zrotation Xrotation Yrotation
												End site
												{
													OFFSET 0.00000 0.00000 0.00000
												}
											}
										}
									}
									JOINT LeftHandRing1
									{
										OFFSET 12.69180 0.00000 -3.06433
										CHANNELS 3 Zrotation Xrotation Yrotation
										JOINT LeftHandRing2
										{
											OFFSET 5.62556 0.00000 0.00000
											CHANNELS 3 Zrotation Xrotation Yrotation
											JOINT LeftHandRing3
											{
												OFFSET 3.56744 0.00000 0.00000
												CHANNELS 3 Zrotation Xrotation Yrotation
												End site
												{
													OFFSET 0.00000 0.00000 0.00000
												}
											}
										}
									}
									JOINT LeftHandPinky1
									{
										OFFSET 11.11390 0.00000 -6.03719
										CHANNELS 3 Zrotation Xrotation Yrotation
										JOINT LeftHandPinky2
										{
											OFFSET 4.52789 0.00000 0.00000
											CHANNELS 3 Zrotation Xrotation Yrotation
											JOINT LeftHandPinky3
											{
												OFFSET 2.46976 0.00000 0.00000
												CHANNELS 3 Zrotation Xrotation Yrotation
												End site
												{
													OFFSET 0.00000 0.00000 0.00000
												}
											}
										}
									}
								}
							}
						}
					}
					JOINT pCube4
					{
						OFFSET 0.00000 10.91090 1.10792
						CHANNELS 3 Zrotation Xrotation Yrotation
						End site
						{
							OFFSET 0.00000 0.00000 0.00000
						}
					}
				}
			}
		}
	}
	JOINT RightUpLeg
	{
		OFFSET -9.98441 0.00000 0.00000
		CHANNELS 3 Zrotation Xrotation Yrotation
		JOINT RightLeg
		{
			OFFSET 0.00000 -42.11790 0.00000
			CHANNELS 3 Zrotation Xrotation Yrotation
			JOINT RightFoot
			{
				OFFSET 0.00000 -45.00020 -0.00001
				CHANNELS 3 Zrotation Xrotation Yrotation
				JOINT RightForeFoot
				{
					OFFSET 0.00000 -3.74820 0.00000
					CHANNELS 3 Zrotation Xrotation Yrotation
					JOINT RightToeBase
					{
						OFFSET 0.00000 0.06325 14.43120
						CHANNELS 3 Zrotation Xrotation Yrotation
						End site
						{
							OFFSET 0.00000 0.00000 0.00000
						}
					}
				}
			}
		}
	}
	JOINT LeftUpLeg
	{
		OFFSET 9.98441 0.00000 0.00000
		CHANNELS 3 Zrotation Xrotation Yrotation
		JOINT LeftLeg
		{
			OFFSET 0.00000 -42.11800 0.00000
			CHANNELS 3 Zrotation Xrotation Yrotation
			JOINT LeftFoot
			{
				OFFSET 0.00000 -45.00070 0.00000
				CHANNELS 3 Zrotation Xrotation Yrotation
				JOINT LeftForeFoot
				{
					OFFSET 0.00000 -3.74824 0.00000
					CHANNELS 3 Zrotation Xrotation Yrotation
					JOINT LeftToeBase
					{
						OFFSET 0.00000 0.06325 14.43110
						CHANNELS 3 Zrotation Xrotation Yrotation
						End site
						{
							OFFSET 0.00000 0.00000 0.00000
						}
					}
				}
			}
		}
	}
}
MOTION
Frames: 4
Frame Time: 0.050000
-0.003363028509527839 -0.02835439876857958 -0.015045009878895716 -0.010067923642610437 0.005281894953909204 0.0111936422661541 2.6037575912192032 3.6949786626334586 -1.7547417474110778 -0.8192501172188034 3.589590803469286 0.39441415723556383 -0.7844691722950874 -1.0427705389864066 0.39775281897886694 -0.5920887306893531 -0.07066734319208554 -0.3504672285420902 -0.25267237543901144 10.591291691206859 -0.4589278674182611 0.3376362824244628 -2.072777530816727 -1.6253570182758625 0.8299991186175915 -19.400015707918516 -0.16571272033709 -7.303109035441503 2.889203010570047 -16.013698442985987 82.92325389375614 20.556303137796572 2.3562132517995544 -8.368861854806566 0.49622002261979703 50.61094369172569 19.062196423553228 -0.3320831854205583 -3.147127700077964 4.514610992687496 -0.17064963260308583 -1.6110432724087937 0.002835627920997229 -0.04443819035396116 -56.210495393418725 -0.049210844176061766 0.040671834421094406 -56.201744575985565 -38.78712618407101 -0.02100682917961667 0.014254713594500337 -0.01388586956812746 -0.012293975625273214 0.029586753618862118 0.03981993641769393 -0.040921958202235285 0.04200174433257934 -36.71441811073319 0.04823176606861573 -0.04588408208970305 0.024569216497265657 0.02870166484641911 0.003168272373963854 0.013330263272294194 -0.022182315723729876 -0.019787142885448823 -19.792310079879858 -0.0032432283807397435 0.0462245557709904 0.014506172875481877 0.01608379408813866 -0.003762171768352292 -0.03945936160053277 -0.022570241858546537 0.009340880303699728 24.08523865203181 0.02614656794459574 0.012636493929537007 28.878002804308956 -0.037849703265300044 0.041589094765840565 28.874439609926924 0.018787486562979107 0.011726765071617793 7.667218227916722 1.9921238660096017 13.570713477678671 -77.39295769007927 24.75422564042195 -8.500581306228069 -0.5596691450688746 -0.4013933391975851 -41.59305367838889 -19.920441005823612 -5.333974854011664 6.172497806495982 -0.524182549079984 0.05559822439163744 -8.09250819183102 0.04470652945352386 -0.038904325629485745 44.57137879599873 -0.024912161906860044 0.01405761105464272 44.52466325591698 12.427823098923747 -0.034329624429934015 0.04949044254899489 0.0065413370817107444 0.02517778577675281 -0.0292581181620347 0.03708234188226651 -0.02425979962041277 0.02258773126802474 11.108111634892559 -0.022776166301483224 -0.008067568805076888 -0.025307648235639947 -0.021262006555971675 -0.00623233309256125 -0.011333288180771593 0.004081468745134758 0.034308000685145064 4.810145542733504 -0.026776014636348017 -0.012840505703989437 0.035041157157632646 -0.02610788466057619 -0.019133103969603604 0.0016190061628803957 -0.01655941600836268 0.048449206761805655 -5.618793174103761 -0.03086958245129279 -0.01713866280488761 -6.699372169628216 0.026526700561621264 -0.032246921629646645 -6.7554410903446245 0.021053450716789757 -0.02351927025316765 -0.0004210488765667953 0.014040916612783087 -0.0032533716688857156 8.03623606053487 3.517454819872013 -19.179628660925683 0.03448305984424481 10.416843287141763 -0.028415017040497852 -5.572081139939858 -15.702775585661323 3.180179951116832 0.030794577693012023 0.019258606326100648 -0.024435820996307502 -0.01615210750206008 4.698331153941007 -0.029050978109536666 12.480899969110952 -8.231097697399525 6.884047100893107 -0.03972713356627593 46.40962374881952 0.04321182677124087 -4.290829815652204 -14.716120523543182 -3.862797374113427 -0.017585736938063465 0.007034336677861955 0.009096806477147829 0.0063139150275079705 -10.730781709008834 0.024009863598019064 
-0.019450833154769812 -0.013077158398945594 0.030202641055541837 0.04936414421666554 -0.03067359283335122 -0.021779470103208055 2.8766905565822074 3.718443606567814 -1.8087701434550814 -0.8548170586861691 3.5218555501759323 0.4368203444861368 -0.7442237005400387 -0.9728693717392527 0.4486116601501191 -0.5980108254636612 -0.08238031992259481 -0.39587816624217875 -0.1799649322661952 10.6700172357716 -0.5385262182336473 0.27331323329402707 -1.98702623645005 -1.7637832342177808 0.8378127284609612 -19.33598523212061 -0.21660296571988635 -7.486967740933455 2.9085809096647015 -16.20786776886642 83.26243646669099 20.686208814761017 2.4140614565551375 -9.079254064374698 -0.11222942805143263 50.968934633761116 18.929601525814068 -0.29166853938775184 -3.2563987547275945 4.5578617175696 -0.17029658288761665 -1.6189200206261791 0.027002029069802 0.0266647616197567 -56.22839335848054 -0.01462313364842812 -0.00519832648597175 -56.25788913909253 -38.747799538689314 0.013982651032681256 -0.02233752520562351 0.017732574561127708 -0.021810460785859676 -0.03094363123042072 -0.03381710566174353 -0.0014309623354685616 0.026382629550353705 -36.71521710168987 -0.008544988191163007 -0.022861044123671202 -0.010775386936004579 -0.001418864048728566 0.02101592911207537 0.037787811427889305 0.021330626130536462 -0.028506474760437904 -19.77301305676517 -0.015867663599174194 0.03864305251399563 0.017144746814776467 0.048422887982882794 0.03935472890337329 -0.04890859111185565 -0.040814366870385636 -0.0036120557057936573 24.06325351417736 0.0331336177707923 0.003253259576518664 28.905547268963133 -0.017718699354649484 -0.006815773524670888 28.88705406967706 -0.039160583375786165 0.03770449359665044 7.755660225823739 1.9564490138073802 13.696653675121336 -77.47363696435303 25.12400933100336 -8.49381117709944 -0.8563387176142297 0.020700917619102838 -42.15204097836257 -20.51196833540344 -5.923409363613351 6.61804082278909 -0.47431003291926815 0.1097517412337938 -8.07513096895128 0.020949500781545213 0.03330281457789502 44.60187478752012 -0.004856485679459703 -0.023637903097808825 44.540303469851885 12.506789790740731 0.007878094955975034 -0.04303200474449298 0.00638783439108488 -0.037306011637290214 -0.009478441644217446 0.005467223538180099 0.028328287438122414 -0.04480945061156344 11.066849498952841 -0.04608024436082364 0.024156565792570705 -0.04293843244267363 0.048351550454493596 0.04322136114909664 0.040798374944385075 -0.03629458967253188 0.007272673248246962 4.793983391069482 -0.043536530607047784 -0.04260614731787458 0.045785961410065405 -0.018498974447447594 -0.011575432275325925 -0.009998285677133274 -0.048100407550570004 0.018864369672864006 -5.590009641092988 -5.964595643034793e-05 -0.038002786429325884 -6.7201424846654 -0.031054256079265524 -0.018509111506643864 -6.754155712885182 -0.014088745095037374 0.0170652516475408 0.04283735270017245 -0.02319948806260595 0.012726329656588044 8.048807282554463 3.4636951450189484 -19.245067699056552 -0.040581961164210166 10.403806018118807 -0.00879678235250508 -5.6164214860918085 -15.697967772598584 3.205796576522857 -0.008446369714317203 0.014278817419672758 0.011589099273042351 -0.029240623868786432 4.675494194662437 -0.03251315576977389 12.413496270290436 -8.207604573012924 6.914634511836141 -0.04485460508128956 46.336266258340785 0.017492471684291477 -4.354482152225389 -14.747185439458795 -3.8587133921052 0.0035195577150833996 0.0156065566782826 0.044067771229826476 -0.008731749120879583 -10.70927152368454 0.038002222537690936 
0.049415373019975645 -0.01316806846812827 0.02250313742351741 0.012949547153490512 0.02598373770433734 -0.006516124804074073 3.0818769175717837 3.641998463457793 -1.8530363296095838 -0.9012239781939054 3.6018310761431414 0.39085276721805257 -0.7129414490408181 -1.0206716693446842 0.5018020297776359 -0.5549115094001064 -0.041334454434822636 -0.39978358327786545 -0.21217854240374215 10.736823301490803 -0.560755111529048 0.32010460679715685 -1.9214515902588827 -1.7619697924310112 0.8542916788580688 -19.143641091318646 -0.2705880380014442 -7.618866300316862 2.93006361893697 -16.37462730162993 83.4713467647779 20.904963199160527 2.500592716820149 -9.442748045956812 -0.9357032651052227 50.321662443574226 18.677672951301467 -0.2773768430265722 -3.2616706957043653 4.566008060273652 -0.09958492650141099 -1.6158868324547335 -0.024545323287092215 0.017294797106974086 -56.237244712050206 0.001001306269249858 0.0006382796728224948 -56.246507627159815 -38.777633298292656 0.0033589675496129025 -0.04823494492550335 0.006350769856987875 -0.045136213982336554 -0.018941835887292882 0.04874002575158094 0.009861931872242304 0.044447607855114084 -36.73022034486202 -0.02414174875533208 0.03172777075359024 0.02585945246215277 -0.018584452299876566 -0.0021545823751106825 0.02092947620446805 -0.023760996367317596 -0.007699377543143218 -19.775360792565827 0.049119895358469765 0.015815898653817686 0.01969256106759025 -6.273564388089049e-05 0.019646558339147187 0.04908145492052256 0.00526455529465125 -0.001108712814628611 24.088818597493432 0.028916413855680344 0.00290974777463409 28.870836047803078 -0.021012881219317218 0.014389138274211632 28.884478183912623 0.006199142555843912 -0.025850000653830894 7.829123438788174 1.9518341697040111 13.777507240029008 -77.56561291999371 25.468800067747555 -8.501036742380748 -0.742286379442756 -0.28091423688486783 -42.091445016354804 -20.46431620566875 -6.092039824097958 6.805037792628033 -0.5155858273739107 0.02724356122651623 -8.078521882369964 0.014613344116989916 -0.044425620540427584 44.567225785566144 -0.03861959522570128 -0.03213538118203009 44.5474834265202 12.488765254522907 -0.014955439492994676 -0.04533172609213983 -0.0011469769761801663 -0.005881774453967361 0.0052526875837404395 -0.037161917793469355 -0.031742344308757345 0.042612324374953305 11.122173484318795 0.039678134894503295 -0.01144369788152352 -0.03426191266941409 -0.03955586496598169 0.0028495168641117412 -0.03245815699316292 0.01821736871383604 0.02316273948111283 4.792602696086825 0.042224388545224804 -0.031494131996160864 0.04329554656535239 0.025000820805341953 -0.005982920391332725 0.009472617797107692 0.04036718156923505 -0.01610448696927455 -5.59378762628584 0.024936952725912384 -0.021128996033458962 -6.729176309771674 -0.04875345675520636 0.015425096411092657 -6.68274310486086 -0.016237132204070685 -0.023796444840684786 -0.04211109278685224 0.02896776063477037 0.019481170772613954 8.042745943921195 3.5231197576687108 -19.222739296302503 -0.03217052066711263 10.409677243587032 -0.0016360187135031831 -5.5765591389353695 -15.679409015278097 3.230511251569996 -0.04054455089433747 -0.010423586725331122 -0.042863474539090264 0.00564346011408934 4.655060462266205 0.011380916422127832 12.498079897021539 -8.245547803594297 6.849128184596427 -0.02790638099318121 46.37878339115626 0.026023399984134287 -4.369270406355825 -14.715447809407602 -3.7925646842743257 -0.026102668553188997 -0.03632442111236973 -0.03086815394535431 -0.005528586572122282 -10.732005653964967 -0.015808907634978758 
0.0424388785165739 0.0024375680833529805 -0.044873130833284064 0.004223848861763047 0.007897704403249554 0.005427892342566274 3.114978923265983 3.4944919520985596 -1.9030506454805989 -0.8640732079875034 3.569811916727647 0.4521877819321257 -0.7369585395031196 -0.9746340918465369 0.4726592869562417 -0.560266513262951 -0.026076901206420935 -0.3962800880059258 -0.13368084650191747 10.753827639015602 -0.5234861456567695 0.32165399987929916 -1.8260847504551623 -1.6505868238683792 0.8130267684284691 -18.94864197854237 -0.1657613751219773 -7.696521978916379 2.9736125771709365 -16.47896789412453 83.600279959283 20.87139973327387 2.0793961472934837 -9.045676336335827 -1.6030432368472503 48.7750224895501 18.554997361858877 -0.29648606232337726 -3.3667973575813916 4.492659604022433 -0.14122045937960517 -1.6053589706560072 -0.023227096688451965 -0.0063562545876866 -56.204553063041494 -0.02172095551447378 -0.025384800042076605 -56.19300409354813 -38.74449126647281 0.028700664289329 -0.017550101625180645 0.0015176109595281683 0.019906183238035124 0.03576881551394602 0.012561863842528815 -0.042311627410254925 -0.01443046203931942 -36.70995471491856 -0.02810867863340588 0.0242788804476599 -0.021056171747219427 0.008506952080588655 0.0433402153783217 0.004599766633409564 -0.030930829440198353 0.04590582383917795 -19.754287623025057 0.01559976977715247 0.019088880357195897 0.02692069591951266 -0.002438386433200102 -0.017747554810844685 0.023044289959867917 0.0481095431819774 0.040409314050260846 24.00546452137372 0.020171373261079907 0.008396913444084093 28.869850769731755 0.047198973628317625 0.0044924303095497655 28.882851331181243 -0.034118410827754186 -0.022593369267610065 7.930359377244704 1.9987849535680708 13.950877527941657 -77.46389638969615 25.63502635181792 -8.070281593481155 0.06177913388891963 -1.0158683374793387 -41.24857133912747 -20.104788719241952 -5.767328951705166 6.502620327020168 -0.4373377480041778 0.04989414114303016 -8.104645576215125 -0.007234094529232963 0.005099527209876167 44.572605948303895 0.01683053479397292 -0.04639553346831573 44.59537296151222 12.480569557029838 -0.042202979253450824 0.003282448819921147 0.010444147490538071 0.03433976250701376 0.024997183615015784 -0.04296897055573099 0.007939782049262578 -0.01777320760892529 11.111943579722086 0.03409060264695691 -0.04639950627893245 0.025243684167121732 -0.038274107457064215 -0.007117002192775804 0.03439945528744554 0.028239668247214855 0.04677277444212616 4.766926318246982 0.031602785383555126 0.03548145604191333 0.023961437188684907 0.01643288636669533 -0.003222631113421159 -0.009293369520765482 -0.025780981330552632 0.016370958705466152 -5.573933744987565 0.0025429790966226607 0.025619667756538435 -6.716447241770717 0.013596553022349848 0.0011832873796214808 -6.720953318474792 0.028588128218445648 -0.04574158305507022 -0.017960965556399935 0.026370625066313814 0.009866856636480901 8.073780214652796 3.450490205370705 -19.25221784002758 0.004813413740547946 10.405657898147902 -0.023902317490317775 -5.633411188976223 -15.66475867321383 3.23925592029119 -0.0005347330192820354 -0.0006543755278187849 -0.029602082535494047 0.03182360833877954 4.681577019071385 -0.003971362999788456 12.48687875046078 -8.198678761086907 6.865508106747848 -0.012574952976823242 46.36432257531954 0.030306613338274876 -4.280210579529759 -14.726860561972074 -3.8509948640310117 0.022502193760856132 -0.027816518939765562 -0.046280365591592335 -0.015150908928227595 -10.727370337336643 0.006550603473408981 
